<svg width="32" height="32" viewBox="0 0 32 32" fill="none" xmlns="http://www.w3.org/2000/svg">
<path d="M18 7V11C18 11.2652 18.1054 11.5196 18.2929 11.7071C18.4804 11.8946 18.7348 12 19 12H23" stroke="#405386" stroke-width="2.67" stroke-linecap="round" stroke-linejoin="round"/>
<path d="M15.5 25H11C10.4696 25 9.96086 24.7893 9.58579 24.4142C9.21071 24.0391 9 23.5304 9 23V9C9 8.46957 9.21071 7.96086 9.58579 7.58579C9.96086 7.21071 10.4696 7 11 7H18L23 12V17M18 23H25M25 23L22 20M25 23L22 26" stroke="#405386" stroke-width="2.67" stroke-linecap="round" stroke-linejoin="round"/>
</svg>
