<svg width="20" height="20" viewBox="0 0 20 20" fill="none" xmlns="http://www.w3.org/2000/svg">
<rect width="20" height="20" rx="4" fill="#E7F5FF"/>
<g clip-path="url(#clip0_102_2461)">
<path d="M7.33325 5.33333C7.33325 5.51014 7.40349 5.67971 7.52851 5.80474C7.65354 5.92976 7.82311 6 7.99992 6C8.17673 6 8.3463 5.92976 8.47132 5.80474C8.59635 5.67971 8.66658 5.51014 8.66658 5.33333C8.66658 5.15652 8.59635 4.98695 8.47132 4.86193C8.3463 4.7369 8.17673 4.66666 7.99992 4.66666C7.82311 4.66666 7.65354 4.7369 7.52851 4.86193C7.40349 4.98695 7.33325 5.15652 7.33325 5.33333Z" fill="#228BE6" stroke="#405386" stroke-width="1.33" stroke-linecap="round" stroke-linejoin="round"/>
<path d="M7.33325 9.99999C7.33325 10.1768 7.40349 10.3464 7.52851 10.4714C7.65354 10.5964 7.82311 10.6667 7.99992 10.6667C8.17673 10.6667 8.3463 10.5964 8.47132 10.4714C8.59635 10.3464 8.66658 10.1768 8.66658 9.99999C8.66658 9.82318 8.59635 9.65361 8.47132 9.52859C8.3463 9.40357 8.17673 9.33333 7.99992 9.33333C7.82311 9.33333 7.65354 9.40357 7.52851 9.52859C7.40349 9.65361 7.33325 9.82318 7.33325 9.99999Z" stroke="#405386" stroke-width="1.33" stroke-linecap="round" stroke-linejoin="round"/>
<path d="M7.33325 14.6667C7.33325 14.8435 7.40349 15.013 7.52851 15.1381C7.65354 15.2631 7.82311 15.3333 7.99992 15.3333C8.17673 15.3333 8.3463 15.2631 8.47132 15.1381C8.59635 15.013 8.66658 14.8435 8.66658 14.6667C8.66658 14.4899 8.59635 14.3203 8.47132 14.1953C8.3463 14.0702 8.17673 14 7.99992 14C7.82311 14 7.65354 14.0702 7.52851 14.1953C7.40349 14.3203 7.33325 14.4899 7.33325 14.6667Z" stroke="#405386" stroke-width="1.33" stroke-linecap="round" stroke-linejoin="round"/>
<path d="M11.3333 5.33333C11.3333 5.51014 11.4035 5.67971 11.5285 5.80474C11.6535 5.92976 11.8231 6 11.9999 6C12.1767 6 12.3463 5.92976 12.4713 5.80474C12.5963 5.67971 12.6666 5.51014 12.6666 5.33333C12.6666 5.15652 12.5963 4.98695 12.4713 4.86193C12.3463 4.7369 12.1767 4.66666 11.9999 4.66666C11.8231 4.66666 11.6535 4.7369 11.5285 4.86193C11.4035 4.98695 11.3333 5.15652 11.3333 5.33333Z" stroke="#405386" stroke-width="1.33" stroke-linecap="round" stroke-linejoin="round"/>
<path d="M11.3333 9.99999C11.3333 10.1768 11.4035 10.3464 11.5285 10.4714C11.6535 10.5964 11.8231 10.6667 11.9999 10.6667C12.1767 10.6667 12.3463 10.5964 12.4713 10.4714C12.5963 10.3464 12.6666 10.1768 12.6666 9.99999C12.6666 9.82318 12.5963 9.65361 12.4713 9.52859C12.3463 9.40357 12.1767 9.33333 11.9999 9.33333C11.8231 9.33333 11.6535 9.40357 11.5285 9.52859C11.4035 9.65361 11.3333 9.82318 11.3333 9.99999Z" stroke="#405386" stroke-width="1.33" stroke-linecap="round" stroke-linejoin="round"/>
<path d="M11.3333 14.6667C11.3333 14.8435 11.4035 15.013 11.5285 15.1381C11.6535 15.2631 11.8231 15.3333 11.9999 15.3333C12.1767 15.3333 12.3463 15.2631 12.4713 15.1381C12.5963 15.013 12.6666 14.8435 12.6666 14.6667C12.6666 14.4899 12.5963 14.3203 12.4713 14.1953C12.3463 14.0702 12.1767 14 11.9999 14C11.8231 14 11.6535 14.0702 11.5285 14.1953C11.4035 14.3203 11.3333 14.4899 11.3333 14.6667Z" stroke="#405386" stroke-width="1.33" stroke-linecap="round" stroke-linejoin="round"/>
</g>
<defs>
<clipPath id="clip0_102_2461">
<rect width="16" height="16" fill="white" transform="translate(2 2)"/>
</clipPath>
</defs>
</svg>
