<svg width="32" height="32" viewBox="0 0 32 32" fill="none" xmlns="http://www.w3.org/2000/svg">
<g clip-path="url(#clip0_130_191)">
<path d="M6.39241 7H13.6329C14.4684 7 15.0253 7.6962 15.0253 8.39241V11.7342H5V8.39241C5 7.6962 5.6962 7 6.39241 7Z" fill="#BDCFFF"/>
<path d="M25.0506 9.64551H5V22.7341C5 23.9873 5.97468 24.962 7.22785 24.962H24.7722C26.0253 24.962 27 23.9873 27 22.7341V11.4556C27 10.481 26.1646 9.64551 25.0506 9.64551ZM19.6203 18.2784H16.9747V20.924C16.9747 21.481 16.557 21.8987 16 21.8987C15.443 21.8987 15.0253 21.481 15.0253 20.924V18.2784H12.2405C11.6835 18.2784 11.2658 17.8607 11.2658 17.3037C11.2658 16.7468 11.6835 16.3291 12.2405 16.3291H14.8861V13.5442C15.0253 12.9873 15.443 12.5696 16 12.5696C16.557 12.5696 16.9747 12.9873 16.9747 13.5442V16.1898H19.6203C20.1772 16.1898 20.5949 16.6075 20.5949 17.1645C20.7342 17.8607 20.1772 18.2784 19.6203 18.2784Z" fill="#BDCFFF"/>
</g>
<defs>
<clipPath id="clip0_130_191">
<rect width="22" height="17.962" fill="white" transform="translate(5 7)"/>
</clipPath>
</defs>
</svg>
