<svg width="32" height="32" viewBox="0 0 32 32" fill="none" xmlns="http://www.w3.org/2000/svg">
<path d="M6.39241 7H13.6329C14.4684 7 15.0253 7.6962 15.0253 8.39241V11.7342H5V8.39241C5 7.6962 5.6962 7 6.39241 7Z" fill="#BDCFFF"/>
<path fill-rule="evenodd" clip-rule="evenodd" d="M5 9.64551H25.0506C26.1646 9.64551 27 10.481 27 11.4556V22.7341C27 23.9873 26.0253 24.962 24.7722 24.962H7.22785C5.97468 24.962 5 23.9873 5 22.7341V9.64551ZM17.3075 22L17.7887 19.2844H19.15L19.26 18.6244C19.2692 18.574 19.276 18.5259 19.2806 18.48C19.2852 18.4342 19.2875 18.3907 19.2875 18.3494C19.2875 18.1477 19.2394 18.0057 19.1431 17.9232C19.0469 17.8361 18.9117 17.7925 18.7375 17.7925H17.9881L18.2769 16.17H18.71C19.0125 16.17 19.2325 16.1219 19.37 16.0257C19.5121 15.9248 19.6038 15.7667 19.645 15.5513L19.81 14.685H18.4762L18.8337 12.6844C18.8383 12.6615 18.8406 12.6432 18.8406 12.6294V12.5744C18.8406 12.4002 18.7765 12.2582 18.6481 12.1482C18.5244 12.0382 18.3617 11.9832 18.16 11.9832H17.2113L16.73 14.685H15.5887L16.07 11.9832H15.0938C14.8737 11.9832 14.679 12.045 14.5094 12.1688C14.3398 12.2879 14.2367 12.4552 14.2 12.6707L13.8425 14.685H13.375C13.0725 14.685 12.8502 14.7354 12.7081 14.8363C12.5706 14.9371 12.4812 15.0929 12.44 15.3038L12.275 16.17H13.6431L13.3544 17.7925H12.1375L12.0275 18.4525C12.0183 18.5029 12.0115 18.5511 12.0069 18.5969C12.0023 18.6427 12 18.6863 12 18.7275C12 18.9292 12.0481 19.0736 12.1444 19.1607C12.2406 19.2432 12.3758 19.2844 12.55 19.2844H13.155L12.6737 22H13.6225C13.7325 22 13.8379 21.9863 13.9388 21.9588C14.0442 21.9313 14.1404 21.8877 14.2275 21.8282C14.3146 21.7686 14.3879 21.6929 14.4475 21.6013C14.5071 21.505 14.5483 21.3904 14.5713 21.2575L14.9081 19.2844H16.0425L15.7125 21.1544C15.7079 21.1773 15.7033 21.2025 15.6987 21.23V21.3057C15.6987 21.4019 15.7148 21.4936 15.7469 21.5807C15.779 21.6632 15.8225 21.7365 15.8775 21.8007C15.9325 21.8602 15.9967 21.9084 16.07 21.945C16.1479 21.9817 16.2304 22 16.3175 22H17.3075ZM16.2419 17.7925H15.1006L15.3894 16.17H16.5306L16.2419 17.7925Z" fill="#BDCFFF"/>
</svg>
