<svg width="18" height="18" viewBox="0 0 18 18" fill="none" xmlns="http://www.w3.org/2000/svg">
<path fill-rule="evenodd" clip-rule="evenodd" d="M9 3C5.68629 3 3 5.68629 3 9C3 12.3137 5.68629 15 9 15C12.3137 15 15 12.3137 15 9C15 5.68629 12.3137 3 9 3ZM1.5 9C1.5 4.85786 4.85786 1.5 9 1.5C13.1421 1.5 16.5 4.85786 16.5 9C16.5 13.1421 13.1421 16.5 9 16.5C4.85786 16.5 1.5 13.1421 1.5 9ZM9 6C9.41421 6 9.75 6.33579 9.75 6.75V8.25H11.25C11.6642 8.25 12 8.58579 12 9C12 9.41421 11.6642 9.75 11.25 9.75H9.75V11.25C9.75 11.6642 9.41421 12 9 12C8.58579 12 8.25 11.6642 8.25 11.25V9.75H6.75C6.33579 9.75 6 9.41421 6 9C6 8.58579 6.33579 8.25 6.75 8.25H8.25V6.75C8.25 6.33579 8.58579 6 9 6Z" fill="#405386"/>
</svg>
