<svg width="32" height="32" viewBox="0 0 32 32" fill="none" xmlns="http://www.w3.org/2000/svg">
<path fill-rule="evenodd" clip-rule="evenodd" d="M8 7C7.44772 7 7 7.44772 7 8V14C7 14.5523 7.44772 15 8 15H14C14.5523 15 15 14.5523 15 14V8C15 7.44772 14.5523 7 14 7H8ZM8 17C7.44772 17 7 17.4477 7 18V24C7 24.5523 7.44772 25 8 25H14C14.5523 25 15 24.5523 15 24V18C15 17.4477 14.5523 17 14 17H8ZM17 8C17 7.44772 17.4477 7 18 7H24C24.5523 7 25 7.44772 25 8V18V19V24C25 24.5523 24.5523 25 24 25H18C17.4477 25 17 24.5523 17 24V19V18V8Z" fill="#BDCFFF"/>
</svg>
