<svg width="32" height="32" viewBox="0 0 32 32" fill="none" xmlns="http://www.w3.org/2000/svg">
<path fill-rule="evenodd" clip-rule="evenodd" d="M7 8C5.89543 8 5 8.89543 5 10V22C5 23.1046 5.89543 24 7 24H25C26.1046 24 27 23.1046 27 22V10C27 8.89543 26.1046 8 25 8H7ZM8.53 11.152C8.06166 10.8593 7.44471 11.0017 7.152 11.47C6.85929 11.9383 7.00166 12.5553 7.47 12.848L15.47 17.848C15.7943 18.0507 16.2057 18.0507 16.53 17.848L24.53 12.848C24.9983 12.5553 25.1407 11.9383 24.848 11.47C24.5553 11.0017 23.9383 10.8593 23.47 11.152L16 15.8208L8.53 11.152Z" fill="#BDCFFF"/>
</svg>
