<svg width="82" height="82" viewBox="0 0 82 82" fill="none" xmlns="http://www.w3.org/2000/svg">
<path fill-rule="evenodd" clip-rule="evenodd" d="M33.4788 38.0424C34.8357 38.682 36.2992 39.0019 37.8791 39.0019C39.6819 39.0019 41.3392 38.5754 42.8609 37.7128C44.3826 36.8308 45.5845 35.6484 46.4762 34.1848C47.3582 32.7213 47.804 31.1511 47.804 29.4937V12.6097C47.804 11.5436 48.8702 10.8264 49.8103 11.3207C55.8098 14.4804 59.9 20.7804 59.9 28.0399C59.9 38.4785 51.4386 46.9399 41 46.9399C30.5614 46.9399 22.1 38.4785 22.1 28.0399C22.1 17.6013 30.5614 9.13989 41 9.13989C41.9111 9.13989 42.6186 9.90558 42.6186 10.8264V29.4937C42.6186 30.2691 42.3957 31.0154 41.9499 31.7327C41.504 32.4208 40.9128 32.983 40.1665 33.39C39.4492 33.8068 38.6835 34.0104 37.8791 34.0104C37.1909 34.0104 36.5609 33.9134 36.0085 33.7196C35.456 33.4967 34.9132 33.138 34.3899 32.6437C33.5563 31.8102 32.7809 31.3934 32.0637 31.3934C31.5112 31.3934 30.9685 31.6454 30.4451 32.1397C29.9217 32.6147 29.66 33.1768 29.66 33.8456C29.66 34.3205 29.8248 34.8051 30.1543 35.2994C31.0169 36.4625 32.1219 37.3736 33.4788 38.0424ZM56.498 27.2839C56.498 28.7474 55.3155 29.9299 53.852 29.9299C52.3885 29.9299 51.206 28.7474 51.206 27.2839C51.206 25.8204 52.3885 24.6379 53.852 24.6379C55.3155 24.6379 56.498 25.8204 56.498 27.2839Z" fill="#5E4E8E"/>
<path d="M11.9182 69.6133C11.0741 69.6133 10.2892 69.443 9.5636 69.1024C8.83797 68.747 8.24562 68.2583 7.78655 67.6363C7.60884 67.3698 7.51999 67.1106 7.51999 66.8589C7.51999 66.5035 7.66067 66.1999 7.94204 65.9481C8.2234 65.6816 8.51217 65.5483 8.80835 65.5483C9.19338 65.5483 9.60802 65.7704 10.0523 66.2147C10.3337 66.4812 10.6224 66.6738 10.9186 66.7922C11.2148 66.8959 11.548 66.9477 11.9182 66.9477C12.3476 66.9477 12.7549 66.8366 13.1399 66.6145C13.5397 66.3924 13.8581 66.0962 14.0951 65.726C14.332 65.341 14.4505 64.9411 14.4505 64.5265V55.197C14.4505 54.8119 14.5912 54.4936 14.8725 54.2418C15.1539 53.9752 15.4797 53.842 15.8499 53.842C16.2646 53.842 16.5977 53.9678 16.8495 54.2196C17.1012 54.4713 17.2271 54.7971 17.2271 55.197V64.5265C17.2271 65.415 16.9902 66.2517 16.5163 67.0366C16.0424 67.8214 15.3982 68.4508 14.5838 68.9247C13.7693 69.3837 12.8808 69.6133 11.9182 69.6133Z" fill="#E4947B"/>
<path d="M30.8384 57.285C31.2234 57.285 31.5418 57.4109 31.7935 57.6626C32.0453 57.9144 32.1712 58.2402 32.1712 58.64V68.0362C32.1712 68.4212 32.0453 68.747 31.7935 69.0135C31.5418 69.2653 31.2234 69.3912 30.8384 69.3912C30.4534 69.3912 30.135 69.2653 29.8832 69.0135C29.6463 68.7618 29.5204 68.4434 29.5056 68.0584C29.1354 68.4878 28.6319 68.858 27.9951 69.169C27.3731 69.4652 26.7141 69.6133 26.0181 69.6133C24.9963 69.6133 24.0708 69.3541 23.2415 68.8358C22.4122 68.3027 21.7532 67.5697 21.2645 66.6367C20.7906 65.7038 20.5537 64.645 20.5537 63.4603C20.5537 62.2756 20.7906 61.2167 21.2645 60.2838C21.7384 59.336 22.3826 58.603 23.1971 58.0847C24.0264 57.5516 24.9371 57.285 25.9293 57.285C26.6401 57.285 27.3065 57.4183 27.9285 57.6848C28.5504 57.9366 29.0761 58.2624 29.5056 58.6622V58.64C29.5056 58.255 29.6315 57.9366 29.8832 57.6848C30.135 57.4183 30.4534 57.285 30.8384 57.285ZM26.3513 67.1698C27.3139 67.1698 28.0988 66.8218 28.7059 66.1258C29.3131 65.415 29.6167 64.5265 29.6167 63.4603C29.6167 62.394 29.3131 61.5055 28.7059 60.7947C28.0988 60.0839 27.3139 59.7284 26.3513 59.7284C25.4036 59.7284 24.6261 60.0839 24.019 60.7947C23.4118 61.5055 23.1082 62.394 23.1082 63.4603C23.1082 64.5265 23.4044 65.415 23.9967 66.1258C24.6039 66.8218 25.3888 67.1698 26.3513 67.1698Z" fill="#E4947B"/>
<path d="M42.1237 57.285C42.5679 57.285 42.9382 57.4109 43.2343 57.6626C43.5453 57.9144 43.7008 58.2106 43.7008 58.5512C43.7008 59.0102 43.5823 59.3582 43.3454 59.5952C43.1085 59.8173 42.8271 59.9284 42.5013 59.9284C42.2792 59.9284 42.0274 59.8765 41.7461 59.7729C41.7016 59.7581 41.598 59.7284 41.4351 59.684C41.287 59.6396 41.1241 59.6174 40.9464 59.6174C40.5614 59.6174 40.1911 59.7359 39.8357 59.9728C39.4803 60.2097 39.1841 60.5725 38.9472 61.0612C38.7251 61.5351 38.614 62.1053 38.614 62.7716V68.0362C38.614 68.4212 38.4881 68.747 38.2364 69.0135C37.9846 69.2653 37.6663 69.3912 37.2812 69.3912C36.8962 69.3912 36.5778 69.2653 36.3261 69.0135C36.0743 68.747 35.9484 68.4212 35.9484 68.0362V58.8621C35.9484 58.4771 36.0743 58.1587 36.3261 57.907C36.5778 57.6404 36.8962 57.5071 37.2812 57.5071C37.6663 57.5071 37.9846 57.6404 38.2364 57.907C38.4881 58.1587 38.614 58.4771 38.614 58.8621V59.1509C38.9546 58.5437 39.4433 58.0847 40.0801 57.7737C40.7169 57.4479 41.3981 57.285 42.1237 57.285Z" fill="#E4947B"/>
<path d="M55.6243 57.5293C55.9798 57.5293 56.2759 57.6478 56.5129 57.8848C56.7498 58.1069 56.8683 58.3883 56.8683 58.7289C56.8683 58.9066 56.809 59.1287 56.6906 59.3953L52.5367 68.5471C52.4331 68.7988 52.2776 68.9987 52.0702 69.1468C51.8777 69.2949 51.6556 69.3763 51.4038 69.3912L51.2039 69.4134C50.9522 69.4134 50.7152 69.3393 50.4931 69.1912C50.2858 69.0283 50.1229 68.8136 50.0044 68.5471L45.8728 59.3953C45.7691 59.1583 45.7173 58.9214 45.7173 58.6844C45.7173 58.3883 45.8432 58.1217 46.0949 57.8848C46.3467 57.633 46.6576 57.5071 47.0279 57.5071C47.3092 57.5071 47.5684 57.5812 47.8053 57.7293C48.0423 57.8774 48.22 58.0847 48.3384 58.3512L51.4038 65.3706L54.447 58.3734C54.5655 58.0921 54.7284 57.8774 54.9357 57.7293C55.1431 57.5812 55.3726 57.5145 55.6243 57.5293Z" fill="#E4947B"/>
<path d="M62.3665 68.0362C62.3665 68.4212 62.2407 68.747 61.9889 69.0135C61.7372 69.2653 61.4188 69.3912 61.0338 69.3912C60.6487 69.3912 60.3303 69.2653 60.0786 69.0135C59.8268 68.747 59.701 68.4212 59.701 68.0362V58.8621C59.701 58.4771 59.8268 58.1587 60.0786 57.907C60.3303 57.6404 60.6487 57.5071 61.0338 57.5071C61.4188 57.5071 61.7372 57.6404 61.9889 57.907C62.2407 58.1587 62.3665 58.4771 62.3665 58.8621V68.0362ZM61.0115 56.0633C60.508 56.0633 60.1526 55.9818 59.9453 55.8189C59.738 55.656 59.6343 55.3673 59.6343 54.9526V54.5306C59.6343 54.1159 59.7454 53.8272 59.9675 53.6643C60.1897 53.5014 60.5451 53.4199 61.0338 53.4199C61.5521 53.4199 61.9149 53.5014 62.1222 53.6643C62.3295 53.8272 62.4332 54.1159 62.4332 54.5306V54.9526C62.4332 55.3821 62.3221 55.6783 62.1 55.8412C61.8927 55.9892 61.5299 56.0633 61.0115 56.0633Z" fill="#E4947B"/>
<path d="M65.306 67.5475C65.1727 67.3698 65.106 67.1476 65.106 66.8811C65.106 66.496 65.2986 66.1703 65.6836 65.9037C65.8909 65.7704 66.1056 65.7038 66.3278 65.7038C66.6387 65.7038 66.9349 65.8445 67.2163 66.1258C67.6605 66.5849 68.1196 66.9255 68.5935 67.1476C69.0822 67.3698 69.6671 67.4808 70.3483 67.4808C71.5034 67.4364 72.081 66.9995 72.081 66.1703C72.081 65.7408 71.881 65.415 71.4812 65.1929C71.0962 64.9707 70.489 64.7486 69.6597 64.5265C68.8008 64.2895 68.0974 64.0526 67.5495 63.8157C67.0164 63.5787 66.5499 63.2233 66.1501 62.7494C65.765 62.2607 65.5725 61.6092 65.5725 60.7947C65.5725 60.0839 65.7724 59.4693 66.1723 58.951C66.5869 58.4179 67.12 58.0106 67.7716 57.7293C68.438 57.4331 69.1414 57.285 69.8819 57.285C70.6371 57.285 71.3924 57.4257 72.1476 57.7071C72.9028 57.9884 73.4952 58.4031 73.9247 58.951C74.1172 59.1879 74.2134 59.4545 74.2134 59.7507C74.2134 60.0913 74.0727 60.3726 73.7914 60.5948C73.5841 60.7577 73.3471 60.8391 73.0806 60.8391C72.7548 60.8391 72.4882 60.7354 72.2809 60.5281C72.0143 60.2023 71.6663 59.9432 71.2369 59.7507C70.8222 59.5581 70.3483 59.4619 69.8152 59.4619C68.6898 59.4619 68.127 59.8691 68.127 60.6836C68.127 61.0094 68.2307 61.276 68.438 61.4833C68.6453 61.6758 68.9045 61.8313 69.2155 61.9498C69.5413 62.0534 69.9929 62.1867 70.5705 62.3496C71.3701 62.5717 72.0365 62.8013 72.5697 63.0382C73.1028 63.2751 73.5544 63.638 73.9247 64.1266C74.2949 64.6153 74.48 65.2595 74.48 66.0592C74.48 66.7848 74.2653 67.4216 73.8358 67.9695C73.4063 68.5026 72.851 68.9099 72.1698 69.1912C71.5034 69.4726 70.8148 69.6133 70.104 69.6133C69.1266 69.6133 68.2159 69.4504 67.3718 69.1246C66.5277 68.7988 65.8391 68.2731 65.306 67.5475Z" fill="#E4947B"/>
</svg>
