<svg width="82" height="82" viewBox="0 0 82 82" fill="none" xmlns="http://www.w3.org/2000/svg">
<path fill-rule="evenodd" clip-rule="evenodd" d="M33.4789 38.0425C34.8358 38.6822 36.2993 39.002 37.8792 39.002C39.6819 39.002 41.3393 38.5755 42.861 37.7129C44.3827 36.8309 45.5846 35.6485 46.4762 34.1849C47.3582 32.7214 47.8041 31.1512 47.8041 29.4939V12.6099C47.8041 11.5437 48.8702 10.8265 49.8104 11.3208C55.8099 14.4805 59.9001 20.7805 59.9001 28.04C59.9001 38.4786 51.4387 46.94 41.0001 46.94C30.5615 46.94 22.1001 38.4786 22.1001 28.04C22.1001 17.6014 30.5615 9.14001 41.0001 9.14001C41.9112 9.14001 42.6187 9.90571 42.6187 10.8265V29.4939C42.6187 30.2692 42.3958 31.0156 41.9499 31.7328C41.5041 32.4209 40.9129 32.9831 40.1666 33.3902C39.4493 33.8069 38.6836 34.0105 37.8792 34.0105C37.191 34.0105 36.561 33.9136 36.0086 33.7197C35.4561 33.4968 34.9133 33.1382 34.3899 32.6439C33.5564 31.8103 32.781 31.3935 32.0638 31.3935C31.5113 31.3935 30.9686 31.6455 30.4452 32.1399C29.9218 32.6148 29.6601 33.1769 29.6601 33.8457C29.6601 34.3206 29.8249 34.8052 30.1544 35.2995C31.017 36.4626 32.1219 37.3737 33.4789 38.0425ZM56.4981 27.284C56.4981 28.7476 55.3156 29.93 53.8521 29.93C52.3886 29.93 51.2061 28.7476 51.2061 27.284C51.2061 25.8205 52.3886 24.638 53.8521 24.638C55.3156 24.638 56.4981 25.8205 56.4981 27.284Z" fill="#5E4E8E"/>
<path d="M11.9182 69.6133C11.0741 69.6133 10.2893 69.443 9.56363 69.1024C8.838 68.747 8.24565 68.2583 7.78658 67.6364C7.60887 67.3698 7.52002 67.1107 7.52002 66.8589C7.52002 66.5035 7.6607 66.1999 7.94207 65.9482C8.22343 65.6816 8.51221 65.5483 8.80838 65.5483C9.19341 65.5483 9.60805 65.7705 10.0523 66.2147C10.3337 66.4813 10.6225 66.6738 10.9186 66.7923C11.2148 66.8959 11.548 66.9478 11.9182 66.9478C12.3477 66.9478 12.7549 66.8367 13.1399 66.6146C13.5398 66.3924 13.8582 66.0963 14.0951 65.7261C14.332 65.341 14.4505 64.9412 14.4505 64.5265V55.197C14.4505 54.812 14.5912 54.4936 14.8726 54.2419C15.1539 53.9753 15.4797 53.842 15.8499 53.842C16.2646 53.842 16.5978 53.9679 16.8495 54.2197C17.1013 54.4714 17.2272 54.7972 17.2272 55.197V64.5265C17.2272 65.4151 16.9902 66.2518 16.5163 67.0366C16.0425 67.8215 15.3983 68.4509 14.5838 68.9247C13.7693 69.3838 12.8808 69.6133 11.9182 69.6133Z" fill="#E4947B"/>
<path d="M30.8384 57.2851C31.2234 57.2851 31.5418 57.4109 31.7936 57.6627C32.0453 57.9144 32.1712 58.2402 32.1712 58.6401V68.0362C32.1712 68.4212 32.0453 68.747 31.7936 69.0136C31.5418 69.2653 31.2234 69.3912 30.8384 69.3912C30.4534 69.3912 30.135 69.2653 29.8832 69.0136C29.6463 68.7618 29.5204 68.4435 29.5056 68.0584C29.1354 68.4879 28.6319 68.8581 27.9951 69.1691C27.3732 69.4653 26.7142 69.6133 26.0182 69.6133C24.9964 69.6133 24.0708 69.3542 23.2415 68.8359C22.4122 68.3028 21.7532 67.5697 21.2646 66.6368C20.7907 65.7038 20.5537 64.645 20.5537 63.4603C20.5537 62.2756 20.7907 61.2168 21.2646 60.2838C21.7384 59.3361 22.3826 58.603 23.1971 58.0847C24.0264 57.5516 24.9371 57.2851 25.9293 57.2851C26.6401 57.2851 27.3065 57.4183 27.9285 57.6849C28.5505 57.9367 29.0762 58.2624 29.5056 58.6623V58.6401C29.5056 58.255 29.6315 57.9367 29.8832 57.6849C30.135 57.4183 30.4534 57.2851 30.8384 57.2851ZM26.3514 67.1699C27.3139 67.1699 28.0988 66.8219 28.706 66.1259C29.3131 65.4151 29.6167 64.5265 29.6167 63.4603C29.6167 62.3941 29.3131 61.5056 28.706 60.7947C28.0988 60.0839 27.3139 59.7285 26.3514 59.7285C25.4036 59.7285 24.6261 60.0839 24.019 60.7947C23.4118 61.5056 23.1082 62.3941 23.1082 63.4603C23.1082 64.5265 23.4044 65.4151 23.9968 66.1259C24.6039 66.8219 25.3888 67.1699 26.3514 67.1699Z" fill="#E4947B"/>
<path d="M42.1237 57.2851C42.568 57.2851 42.9382 57.4109 43.2344 57.6627C43.5454 57.9144 43.7008 58.2106 43.7008 58.5512C43.7008 59.0103 43.5824 59.3583 43.3454 59.5952C43.1085 59.8174 42.8271 59.9284 42.5013 59.9284C42.2792 59.9284 42.0275 59.8766 41.7461 59.7729C41.7017 59.7581 41.598 59.7285 41.4351 59.6841C41.287 59.6397 41.1241 59.6174 40.9464 59.6174C40.5614 59.6174 40.1912 59.7359 39.8358 59.9729C39.4804 60.2098 39.1842 60.5726 38.9472 61.0613C38.7251 61.5352 38.614 62.1053 38.614 62.7717V68.0362C38.614 68.4212 38.4882 68.747 38.2364 69.0136C37.9847 69.2653 37.6663 69.3912 37.2813 69.3912C36.8962 69.3912 36.5778 69.2653 36.3261 69.0136C36.0743 68.747 35.9485 68.4212 35.9485 68.0362V58.8622C35.9485 58.4772 36.0743 58.1588 36.3261 57.907C36.5778 57.6405 36.8962 57.5072 37.2813 57.5072C37.6663 57.5072 37.9847 57.6405 38.2364 57.907C38.4882 58.1588 38.614 58.4772 38.614 58.8622V59.151C38.9546 58.5438 39.4433 58.0847 40.0801 57.7738C40.7169 57.448 41.3981 57.2851 42.1237 57.2851Z" fill="#E4947B"/>
<path d="M55.6244 57.5294C55.9798 57.5294 56.276 57.6479 56.5129 57.8848C56.7498 58.107 56.8683 58.3883 56.8683 58.7289C56.8683 58.9066 56.8091 59.1288 56.6906 59.3953L52.5367 68.5471C52.4331 68.7989 52.2776 68.9988 52.0703 69.1469C51.8778 69.295 51.6556 69.3764 51.4039 69.3912L51.204 69.4134C50.9522 69.4134 50.7153 69.3394 50.4931 69.1913C50.2858 69.0284 50.1229 68.8137 50.0045 68.5471L45.8728 59.3953C45.7692 59.1584 45.7173 58.9214 45.7173 58.6845C45.7173 58.3883 45.8432 58.1218 46.0949 57.8848C46.3467 57.6331 46.6577 57.5072 47.0279 57.5072C47.3093 57.5072 47.5684 57.5812 47.8054 57.7293C48.0423 57.8774 48.22 58.0847 48.3385 58.3513L51.4039 65.3706L54.4471 58.3735C54.5655 58.0921 54.7284 57.8774 54.9358 57.7293C55.1431 57.5812 55.3726 57.5146 55.6244 57.5294Z" fill="#E4947B"/>
<path d="M62.3666 68.0362C62.3666 68.4212 62.2407 68.747 61.9889 69.0136C61.7372 69.2653 61.4188 69.3912 61.0338 69.3912C60.6488 69.3912 60.3304 69.2653 60.0786 69.0136C59.8269 68.747 59.701 68.4212 59.701 68.0362V58.8622C59.701 58.4772 59.8269 58.1588 60.0786 57.907C60.3304 57.6405 60.6488 57.5072 61.0338 57.5072C61.4188 57.5072 61.7372 57.6405 61.9889 57.907C62.2407 58.1588 62.3666 58.4772 62.3666 58.8622V68.0362ZM61.0116 56.0633C60.5081 56.0633 60.1527 55.9819 59.9453 55.819C59.738 55.6561 59.6344 55.3673 59.6344 54.9527V54.5306C59.6344 54.116 59.7454 53.8272 59.9676 53.6643C60.1897 53.5014 60.5451 53.42 61.0338 53.42C61.5521 53.42 61.9149 53.5014 62.1222 53.6643C62.3296 53.8272 62.4332 54.116 62.4332 54.5306V54.9527C62.4332 55.3821 62.3221 55.6783 62.1 55.8412C61.8927 55.9893 61.5299 56.0633 61.0116 56.0633Z" fill="#E4947B"/>
<path d="M65.306 67.5475C65.1727 67.3698 65.1061 67.1477 65.1061 66.8811C65.1061 66.4961 65.2986 66.1703 65.6836 65.9038C65.8909 65.7705 66.1057 65.7038 66.3278 65.7038C66.6388 65.7038 66.935 65.8445 67.2163 66.1259C67.6606 66.585 68.1197 66.9256 68.5935 67.1477C69.0822 67.3698 69.6672 67.4809 70.3484 67.4809C71.5035 67.4365 72.081 66.9996 72.081 66.1703C72.081 65.7409 71.8811 65.4151 71.4812 65.1929C71.0962 64.9708 70.4891 64.7487 69.6598 64.5265C68.8009 64.2896 68.0974 64.0527 67.5495 63.8157C67.0164 63.5788 66.5499 63.2234 66.1501 62.7495C65.7651 62.2608 65.5725 61.6092 65.5725 60.7947C65.5725 60.0839 65.7725 59.4694 66.1723 58.9511C66.5869 58.4179 67.1201 58.0107 67.7716 57.7293C68.438 57.4332 69.1415 57.2851 69.8819 57.2851C70.6371 57.2851 71.3924 57.4257 72.1476 57.7071C72.9029 57.9885 73.4952 58.4031 73.9247 58.9511C74.1172 59.188 74.2134 59.4545 74.2134 59.7507C74.2134 60.0913 74.0728 60.3727 73.7914 60.5948C73.5841 60.7577 73.3471 60.8392 73.0806 60.8392C72.7548 60.8392 72.4882 60.7355 72.2809 60.5282C72.0144 60.2024 71.6664 59.9432 71.2369 59.7507C70.8223 59.5582 70.3484 59.462 69.8153 59.462C68.6898 59.462 68.1271 59.8692 68.1271 60.6837C68.1271 61.0095 68.2307 61.276 68.438 61.4833C68.6454 61.6759 68.9045 61.8314 69.2155 61.9498C69.5413 62.0535 69.993 62.1868 70.5705 62.3497C71.3702 62.5718 72.0366 62.8013 72.5697 63.0383C73.1028 63.2752 73.5545 63.638 73.9247 64.1267C74.2949 64.6154 74.48 65.2596 74.48 66.0592C74.48 66.7849 74.2653 67.4217 73.8358 67.9696C73.4064 68.5027 72.8511 68.9099 72.1698 69.1913C71.5035 69.4727 70.8148 69.6133 70.104 69.6133C69.1266 69.6133 68.2159 69.4505 67.3718 69.1247C66.5277 68.7989 65.8391 68.2732 65.306 67.5475Z" fill="#E4947B"/>
</svg>
