<svg width="25" height="26" viewBox="0 0 25 26" fill="none" xmlns="http://www.w3.org/2000/svg">
<path fill-rule="evenodd" clip-rule="evenodd" d="M25 13.0279C25 12.7804 24.9051 12.5329 24.7182 12.3466L20.3678 8.01155C19.9911 7.63895 19.38 7.63895 19.0033 8.01433C18.6265 8.38694 18.6265 8.9959 19.0033 9.37129L21.7072 12.0657L5.58383 12.0657C5.05085 12.0657 4.61833 12.4967 4.61833 13.0279C4.61833 13.559 5.05085 13.99 5.58383 13.99L21.7072 13.99L19.0033 16.6844C18.8219 16.8652 18.7214 17.1071 18.7214 17.3629C18.7214 17.6187 18.8219 17.8606 19.0033 18.0414C19.38 18.4168 19.9911 18.4168 20.3678 18.0414L24.7182 13.7091C24.9051 13.52 25 13.2753 25 13.0279ZM7.95021 23.5332C8.4832 23.5332 8.91573 23.9642 8.91573 24.4953C8.91573 25.0264 8.4832 25.4574 7.953 25.4574L1.73293 25.4574C0.778566 25.4574 1.14441e-05 24.6843 1.14441e-05 23.7306V2.26951C1.14441e-05 1.31853 0.775776 0.542725 1.73293 0.542725L7.953 0.542725C8.4832 0.542725 8.91852 0.970945 8.91852 1.50205C8.91852 2.03315 8.48599 2.46416 7.953 2.46416H2.49753C2.17941 2.46416 1.92268 2.72276 1.92268 3.03697V22.9603C1.92268 23.2773 2.1822 23.5332 2.49753 23.5332L7.95021 23.5332Z" fill="#0965E2"/>
</svg>
