<svg width="32" height="33" viewBox="0 0 32 33" fill="none" xmlns="http://www.w3.org/2000/svg">
<rect y="0.5" width="32" height="32" rx="16" fill="#405386"/>
<path d="M12 11.5C12 12.5609 12.4214 13.5783 13.1716 14.3284C13.9217 15.0786 14.9391 15.5 16 15.5C17.0609 15.5 18.0783 15.0786 18.8284 14.3284C19.5786 13.5783 20 12.5609 20 11.5C20 10.4391 19.5786 9.42172 18.8284 8.67157C18.0783 7.92143 17.0609 7.5 16 7.5C14.9391 7.5 13.9217 7.92143 13.1716 8.67157C12.4214 9.42172 12 10.4391 12 11.5Z" stroke="white" stroke-width="2" stroke-linecap="round" stroke-linejoin="round"/>
<path d="M10 25.5V23.5C10 22.4391 10.4214 21.4217 11.1716 20.6716C11.9217 19.9214 12.9391 19.5 14 19.5H18C19.0609 19.5 20.0783 19.9214 20.8284 20.6716C21.5786 21.4217 22 22.4391 22 23.5V25.5" stroke="white" stroke-width="2" stroke-linecap="round" stroke-linejoin="round"/>
</svg>
