<svg width="32" height="32" viewBox="0 0 32 32" fill="none" xmlns="http://www.w3.org/2000/svg">
<path fill-rule="evenodd" clip-rule="evenodd" d="M18.2219 8.05258C17.4993 6.64914 15.4928 6.64914 14.7703 8.05258C14.3361 8.89593 13.356 9.30196 12.4526 9.01271C10.9497 8.53153 9.53185 9.95159 10.0124 11.4547C10.3014 12.3583 9.89572 13.3393 9.05251 13.774C7.64916 14.4975 7.64916 16.5041 9.05251 17.2276C9.89572 17.6623 10.3014 18.6433 10.0124 19.5469C9.53185 21.05 10.9497 22.4701 12.4526 21.9889C13.356 21.6996 14.3361 22.1057 14.7703 22.949C15.4928 24.3525 17.4993 24.3525 18.2219 22.949C18.6561 22.1057 19.6362 21.6996 20.5396 21.9889C22.0425 22.4701 23.4603 21.05 22.9797 19.5469C22.6908 18.6433 23.0965 17.6623 23.9397 17.2276C25.343 16.5041 25.343 14.4975 23.9397 13.774C23.0965 13.3393 22.6908 12.3583 22.9797 11.4547C23.4603 9.95159 22.0425 8.53153 20.5396 9.01271C19.6362 9.30196 18.6561 8.89593 18.2219 8.05258ZM16.5693 19.561C18.7773 19.561 20.5672 17.773 20.5672 15.5672C20.5672 13.3615 18.7773 11.5734 16.5693 11.5734C14.3613 11.5734 12.5714 13.3615 12.5714 15.5672C12.5714 17.773 14.3613 19.561 16.5693 19.561Z" fill="#BDCFFF"/>
</svg>
