<svg width="24" height="20" viewBox="0 0 24 20" fill="none" xmlns="http://www.w3.org/2000/svg">
<path d="M18.7491 18.6002L15.0309 15.0405H8.97095L5.25276 18.6002C4.70457 19.1237 5.10677 19.9999 5.89629 19.9999H10.9164H13.0884H18.1085C18.8921 19.9999 19.2943 19.1237 18.7491 18.6002Z" fill="#BDCFFF"/>
<path fill-rule="evenodd" clip-rule="evenodd" d="M3.79444 16.2033H20.2083C22.3025 16.2033 24.0027 14.4676 24 12.3268V3.87381C24 1.73578 22.3025 0 20.2056 0H3.79444C1.70021 0 0 1.73578 0 3.87381V12.3295C0 14.4676 1.70021 16.2033 3.79444 16.2033ZM16.0501 7.14588H16.1927C16.6409 7.14588 17.005 7.50281 16.9999 7.9496C16.9999 8.3889 16.6383 8.74333 16.1902 8.74333H16.0476C15.8388 8.74333 15.6529 8.87312 15.5892 9.06781C15.523 9.27498 15.4364 9.47466 15.3346 9.66436C15.2378 9.84657 15.276 10.0712 15.4237 10.216L15.5561 10.3458C15.8719 10.6553 15.8719 11.1595 15.5561 11.469C15.2403 11.7785 14.726 11.7785 14.4102 11.469L14.2676 11.3292C14.1199 11.1844 13.8933 11.147 13.7074 11.2418C13.5291 11.3317 13.3432 11.4066 13.1497 11.469C12.9511 11.5314 12.8187 11.7136 12.8187 11.9183V12.0331C12.8187 12.4724 12.4571 12.8268 12.0089 12.8268C11.5607 12.8268 11.1991 12.4724 11.1991 12.0331V11.9332C11.1991 11.7261 11.0641 11.5439 10.863 11.4815C10.6618 11.4191 10.4657 11.3392 10.2798 11.2468C10.0939 11.1545 9.86986 11.1919 9.72217 11.3367L9.58975 11.4665C9.27399 11.776 8.7596 11.776 8.44384 11.4665C8.12808 11.157 8.12808 10.6528 8.44384 10.3433L8.56098 10.2285C8.70867 10.0812 8.74687 9.85655 8.64756 9.67435C8.54315 9.47966 8.45403 9.27498 8.38527 9.06033C8.32416 8.86564 8.13572 8.73584 7.92691 8.73584H7.80977C7.3616 8.73584 7 8.38141 7 7.94211C7 7.50281 7.3616 7.14838 7.80977 7.14838H7.92691C8.13572 7.14838 8.32161 7.01859 8.38527 6.8239C8.45403 6.60924 8.54315 6.40457 8.64756 6.20988C8.74687 6.02517 8.71122 5.80303 8.56098 5.65576L8.44384 5.54094C8.12808 5.23144 8.12808 4.72724 8.44384 4.41774C8.7596 4.10823 9.27399 4.10823 9.58975 4.41774L9.72471 4.54753C9.86986 4.6923 10.0965 4.72974 10.2824 4.63739C10.4683 4.54254 10.6644 4.46516 10.8655 4.40276C11.0667 4.34036 11.2017 4.15566 11.2017 3.95098V3.79373C11.2017 3.35443 11.5633 3 12.0114 3C12.4596 3 12.8212 3.35443 12.8212 3.79373V3.97095C12.8212 4.17562 12.9536 4.35783 13.1522 4.42023C13.3458 4.48014 13.5317 4.55751 13.7099 4.64737C13.8958 4.74222 14.1224 4.70478 14.2701 4.56001L14.4127 4.42023C14.7285 4.11073 15.2429 4.11073 15.5587 4.42023C15.8744 4.72974 15.8744 5.23393 15.5587 5.54344L15.4262 5.67323C15.276 5.818 15.2403 6.04264 15.3371 6.22485C15.439 6.41455 15.5255 6.61423 15.5918 6.8214C15.6529 7.01609 15.8413 7.14588 16.0501 7.14588ZM9.81129 7.94211C9.81129 9.13021 10.7942 10.0962 12.0089 10.0962C13.2235 10.0962 14.209 9.13021 14.2065 7.94211C14.2065 6.75401 13.2235 5.78805 12.0089 5.78805C10.7968 5.78805 9.81129 6.75151 9.81129 7.94211Z" fill="#BDCFFF"/>
</svg>
